<svg width="703" height="408" viewBox="0 0 703 408" fill="none" xmlns="http://www.w3.org/2000/svg">
<path d="M441.992 51.0915C317.096 47.5007 343.107 0.112986 229.588 -0.000109354C-83.2438 -0.309658 14.6496 405.664 14.6496 405.664L655.489 406.51C767.742 295.315 674.927 57.7846 441.992 51.0915Z" fill="#F966FC"/>
<path d="M473.988 408C475.635 406.672 502.604 354.096 520.365 378.956C520.365 378.956 547.012 287.807 583.524 292.115C620.036 296.423 589.112 364.042 589.112 364.042C589.112 364.042 620.363 351.113 613.128 385.254C613.128 385.254 652.929 377.963 649.967 406.799L473.988 408" fill="#3F9896"/>
<path d="M623.508 320.989C618.639 326.908 617.244 333.836 620.389 336.467C623.538 339.095 630.038 336.427 634.907 330.506C639.776 324.588 641.17 317.659 638.022 315.029C634.877 312.401 628.381 315.068 623.508 320.989" fill="#3F9896"/>
<path d="M630.94 344.281C628.056 347.788 627.232 351.89 629.092 353.446C630.957 355.002 634.804 353.421 637.683 349.917C640.566 346.413 641.395 342.311 639.531 340.755C637.67 339.199 633.819 340.778 630.94 344.281Z" fill="#3F9896"/>
<path d="M587.672 370.705C587.576 370.686 587.492 370.629 587.432 370.542C587.317 370.366 587.364 370.127 587.54 370.009C587.859 369.795 595.434 364.763 602.079 366.214H602.083C602.29 366.261 602.422 366.465 602.374 366.673C602.33 366.882 602.131 367.013 601.923 366.968L601.915 366.966C595.589 365.584 588.038 370.599 587.963 370.649C587.875 370.711 587.767 370.726 587.672 370.705" fill="black"/>
<path d="M592.758 371.283C592.667 371.261 592.579 371.206 592.523 371.12C592.403 370.941 592.455 370.702 592.631 370.586C592.778 370.486 596.275 368.206 602.485 368.596C602.697 368.608 602.857 368.792 602.841 369.003C602.829 369.216 602.649 369.377 602.437 369.365C596.482 368.99 593.086 371.204 593.054 371.226C592.962 371.286 592.858 371.303 592.758 371.283Z" fill="black"/>
<path d="M497.905 386.171C497.809 386.171 497.713 386.134 497.641 386.062C497.49 385.915 497.483 385.672 497.63 385.518C497.898 385.24 504.237 378.704 511.04 378.704C511.263 378.709 511.428 378.875 511.428 379.089C511.428 379.302 511.256 379.473 511.047 379.473H511.04C504.563 379.473 498.241 385.987 498.183 386.052C498.104 386.131 498.008 386.171 497.905 386.171" fill="black"/>
<path d="M503.005 385.645C502.908 385.645 502.812 385.607 502.737 385.535C502.585 385.387 502.582 385.143 502.73 384.992C502.854 384.865 505.792 381.887 511.943 380.942C512.153 380.91 512.345 381.054 512.379 381.264C512.41 381.473 512.266 381.672 512.06 381.701C506.177 382.607 503.307 385.5 503.276 385.528C503.204 385.605 503.104 385.645 503.005 385.645" fill="black"/>
<path d="M141.128 408C139.81 406.935 118.198 364.811 103.966 384.728C103.966 384.728 82.6183 311.697 53.3642 315.148C24.1096 318.6 48.8837 372.78 48.8837 372.78C48.8837 372.78 23.8461 362.422 29.6442 389.776C29.6442 389.776 -2.24597 383.932 0.126056 407.037L141.128 408Z" fill="#3F9896"/>
<path d="M50.0426 378.12C50.1172 378.103 50.1861 378.058 50.2322 377.988C50.326 377.847 50.2883 377.656 50.1477 377.562C49.8921 377.39 43.8236 373.358 38.4976 374.522H38.4944C38.3292 374.559 38.2245 374.723 38.2605 374.889C38.2962 375.055 38.4592 375.162 38.6245 375.125H38.6274C43.6975 374.015 49.747 378.033 49.8074 378.075C49.8795 378.122 49.9643 378.137 50.0426 378.12" fill="black"/>
<path d="M45.9636 378.581C46.039 378.564 46.1079 378.519 46.154 378.449C46.2473 378.308 46.2086 378.114 46.0675 378.02C45.9508 377.943 43.148 376.114 38.1713 376.427C38.0016 376.439 37.8745 376.583 37.8849 376.755C37.8955 376.923 38.0408 377.052 38.2094 377.042C42.9831 376.745 45.7028 378.519 45.7296 378.536C45.8013 378.583 45.8855 378.596 45.9636 378.581" fill="black"/>
<path d="M121.963 390.508C122.04 390.508 122.117 390.481 122.176 390.421C122.297 390.304 122.301 390.108 122.184 389.987C121.97 389.763 116.888 384.525 111.438 384.525C111.262 384.53 111.128 384.664 111.128 384.835C111.128 385.004 111.266 385.143 111.435 385.143H111.438C116.631 385.143 121.692 390.361 121.743 390.414C121.803 390.478 121.883 390.508 121.963 390.508" fill="black"/>
<path d="M117.88 390.089C117.957 390.089 118.035 390.059 118.094 390C118.215 389.88 118.217 389.687 118.1 389.565C118.002 389.464 115.647 387.079 110.718 386.319C110.549 386.295 110.395 386.409 110.37 386.577C110.344 386.746 110.459 386.903 110.626 386.93C115.338 387.654 117.639 389.972 117.661 389.995C117.721 390.057 117.801 390.089 117.88 390.089Z" fill="black"/>
<path d="M497.754 234.112L326.876 406.301V406.46H570.622C569.867 338.995 542.121 278.062 497.754 234.112Z" fill="#90DDB8"/>
<path d="M83.2959 406.461H326.879V406.302L156.081 234.193C111.762 278.138 84.0492 339.038 83.2959 406.461Z" fill="#ED3B5E"/>
<path d="M326.879 406.303V163.653C260.343 163.698 200.042 190.603 156.081 234.193L326.879 406.303Z" fill="#F99C50"/>
<path d="M326.874 406.302L497.753 234.113C453.766 190.535 393.434 163.653 326.874 163.653V406.302Z" fill="#6EAFEA"/>
<path d="M476.387 255.647L497.678 234.192L476.387 255.647Z" fill="#DDDFBD"/>
<path d="M570.461 406.463H547.193C540.169 351.462 520.793 302.273 485.881 265.184C482.802 261.908 479.631 258.73 476.381 255.65L497.677 234.195C541.993 278.138 569.706 339.039 570.461 406.463Z" fill="#7DD4A9"/>
<path d="M476.385 255.647C476.359 255.62 476.329 255.596 476.302 255.571L497.596 234.113C497.623 234.14 497.65 234.165 497.677 234.192L476.385 255.647" fill="#60A8D6"/>
<path d="M90.3889 350.158C90.3536 350.086 90.3177 350.012 90.2822 349.94C101.278 305.285 124.399 265.448 155.921 234.194L156.001 234.273C124.469 265.568 101.353 305.451 90.3889 350.158Z" fill="#FAB2A7"/>
<path d="M109.452 406.461H83.1357C83.3532 386.993 85.8181 368.069 90.2821 349.939C90.3176 350.011 90.3535 350.085 90.3888 350.157C85.9587 368.22 83.5123 387.07 83.2956 406.461H109.452" fill="#3E7579"/>
<path d="M109.453 406.461H83.2959C83.5126 387.07 85.959 368.22 90.3891 350.157C101.354 305.45 124.469 265.567 156.001 234.272L177.056 255.489C173.723 258.646 170.475 261.904 167.319 265.262C132.447 302.343 116.471 351.5 109.453 406.461Z" fill="#E82D4C"/>
<path d="M156.001 234.272L155.921 234.193C199.882 190.602 260.183 163.698 326.721 163.653H326.717C260.24 163.74 200.006 190.637 156.081 234.193C156.054 234.22 156.028 234.248 156.001 234.272" fill="#FFDAB1"/>
<path d="M177.056 255.489L156.001 234.272C156.028 234.247 156.054 234.22 156.081 234.193L177.139 255.412C177.112 255.437 177.083 255.464 177.056 255.489Z" fill="#ED3750"/>
<path d="M177.138 255.413L156.081 234.193C200.005 190.638 260.239 163.74 326.716 163.653V194.722H326.571C269.346 194.762 217.072 217.654 177.138 255.413Z" fill="#F99345"/>
<path d="M326.876 194.722C326.825 194.722 326.768 194.722 326.717 194.722H326.722V163.653C326.756 163.653 326.8 163.653 326.835 163.653C326.847 163.653 326.864 163.653 326.876 163.653V194.722" fill="#CE8D4E"/>
<path d="M476.298 255.572C436.382 217.754 384.11 194.809 326.874 194.723V163.654C393.374 163.697 453.638 190.571 497.593 234.115L476.298 255.572Z" fill="#5B9EE4"/>
<path d="M326.717 194.722H326.721V163.653H326.717V194.722Z" fill="#CE8543"/>
<path d="M146.465 372.596L145.743 375.432L133.958 372.387L134.68 369.551C135.24 367.35 136.151 365.824 137.415 364.973C138.679 364.119 140.308 363.95 142.301 364.464C144.236 364.965 145.553 365.898 146.251 367.266C146.95 368.635 147.021 370.41 146.465 372.596V372.596ZM149.008 374.025C149.904 370.506 149.849 367.692 148.843 365.581C147.838 363.469 145.866 362.034 142.927 361.275C139.988 360.516 137.57 360.816 135.673 362.178C133.776 363.538 132.379 365.978 131.484 369.496L130.096 374.951L162.417 383.304L163.268 379.961L148.471 376.137L149.008 374.025" fill="white"/>
<path d="M167.65 355.315C167.039 357.201 165.484 358.199 162.984 358.306C160.484 358.415 156.714 357.64 151.673 355.983C147.275 354.536 144.188 353.042 142.412 351.504C140.635 349.963 140.045 348.273 140.642 346.431C141.238 344.59 142.757 343.597 145.198 343.451C147.638 343.307 151.2 344.007 155.884 345.545C160.595 347.096 163.884 348.652 165.748 350.213C167.613 351.774 168.246 353.474 167.65 355.315ZM157.016 342.049C151.605 340.27 147.268 339.672 144.006 340.255C140.744 340.838 138.644 342.575 137.707 345.466C136.766 348.372 137.44 351.022 139.73 353.414C142.02 355.809 145.878 357.899 151.304 359.683C156.716 361.462 161.057 362.073 164.329 361.507C167.6 360.943 169.707 359.209 170.649 356.303C171.585 353.409 170.9 350.757 168.594 348.342C166.287 345.928 162.428 343.831 157.016 342.049" fill="white"/>
<path d="M175.147 334.7C174.402 336.537 172.779 337.418 170.277 337.341C167.776 337.266 164.072 336.219 159.164 334.194C154.882 332.43 151.911 330.715 150.251 329.047C148.59 327.382 148.124 325.653 148.852 323.861C149.58 322.067 151.166 321.188 153.611 321.223C156.055 321.258 159.558 322.216 164.117 324.094C168.705 325.985 171.872 327.779 173.619 329.472C175.366 331.164 175.875 332.909 175.147 334.7V334.7ZM165.499 320.69C160.231 318.518 155.949 317.603 152.653 317.945C149.358 318.288 147.138 319.866 145.995 322.682C144.846 325.511 145.327 328.204 147.438 330.76C149.55 333.313 153.246 335.681 158.529 337.857C163.798 340.031 168.084 340.956 171.387 340.634C174.691 340.311 176.917 338.735 178.066 335.904C179.21 333.09 178.718 330.392 176.592 327.814C174.466 325.238 170.768 322.863 165.499 320.69" fill="white"/>
<path d="M168.853 308.93L167.539 311.543L157.168 306.25L158.481 303.637C159.526 301.558 160.734 300.228 162.104 299.647C163.474 299.064 165.03 299.218 166.772 300.108C168.5 300.989 169.537 302.168 169.882 303.642C170.227 305.116 169.884 306.878 168.853 308.93V308.93ZM172.373 300.369C171.561 298.937 170.243 297.756 168.421 296.825C165.795 295.485 163.433 295.287 161.335 296.225C159.238 297.165 157.372 299.262 155.736 302.518L152.988 307.985L182.755 323.177L184.302 320.1L170.233 312.918L170.833 311.724C171.03 311.332 171.237 310.903 171.454 310.437C171.672 309.973 171.974 309.32 172.361 308.481L188.781 311.186L190.451 307.866L173.174 305.208C173.452 303.414 173.185 301.803 172.373 300.369" fill="white"/>
<path d="M487.919 296.477C484.645 296.202 480.22 297.286 474.641 299.73C469.476 301.994 465.921 304.423 463.967 307.019C462.016 309.614 461.673 312.379 462.937 315.307C463.434 316.459 464.064 317.384 464.821 318.084C465.581 318.781 466.518 319.3 467.632 319.637L465.998 320.749L466.958 322.978L481.3 316.694L478.072 309.22L475.324 310.423L477.255 314.9L473.664 316.476C471.857 317.267 470.263 317.481 468.879 317.124C467.495 316.764 466.498 315.875 465.888 314.458C465.014 312.434 465.391 310.51 467.022 308.689C468.652 306.87 471.7 304.982 476.161 303.026C481.037 300.889 484.691 299.795 487.112 299.738C489.54 299.683 491.17 300.626 492.01 302.569C492.607 303.959 492.494 305.299 491.67 306.594C490.843 307.887 489.336 309.078 487.155 310.168L488.476 313.228C491.464 311.92 493.518 310.21 494.628 308.106C495.745 305.999 495.792 303.768 494.775 301.408C493.474 298.395 491.19 296.753 487.919 296.477" fill="white"/>
<path d="M498.663 329.645C496.817 331.263 493.575 332.909 488.935 334.576C484.27 336.256 480.724 337.053 478.302 336.971C475.88 336.884 474.346 335.931 473.696 334.105C473.038 332.239 473.662 330.492 475.572 328.864C477.486 327.236 480.934 325.524 485.93 323.727C490.286 322.159 493.636 321.436 495.973 321.558C498.314 321.682 499.808 322.655 500.454 324.479C501.101 326.303 500.502 328.025 498.663 329.645V329.645ZM496.935 318.394C493.67 317.913 489.351 318.64 483.972 320.573C478.614 322.501 474.81 324.697 472.564 327.161C470.318 329.623 469.709 332.296 470.728 335.174C471.741 338.041 473.895 339.716 477.188 340.204C480.477 340.691 484.802 339.971 490.164 338.041C495.526 336.112 499.32 333.911 501.545 331.44C503.771 328.966 504.377 326.298 503.361 323.434C502.341 320.553 500.197 318.873 496.935 318.394Z" fill="white"/>
<path d="M505.501 352.431C503.549 353.911 500.194 355.313 495.446 356.633C490.668 357.963 487.076 358.496 484.664 358.233C482.256 357.97 480.794 356.903 480.283 355.037C479.758 353.126 480.51 351.429 482.534 349.948C484.558 348.466 488.126 347.012 493.237 345.59C497.693 344.349 501.09 343.875 503.412 344.17C505.738 344.466 507.155 345.545 507.67 347.414C508.181 349.28 507.457 350.953 505.501 352.431V352.431ZM504.599 341.083C501.378 340.364 497.018 340.768 491.515 342.299C486.029 343.828 482.077 345.736 479.659 348.027C477.24 350.317 476.434 352.938 477.244 355.883C478.047 358.817 480.074 360.645 483.319 361.375C486.565 362.104 490.932 361.705 496.421 360.179C501.906 358.65 505.848 356.737 508.249 354.434C510.647 352.134 511.447 349.518 510.644 346.585C509.838 343.637 507.82 341.803 504.599 341.083" fill="white"/>
<path d="M510.554 375.696C508.836 377.319 505.457 378.609 500.429 379.567C495.321 380.54 491.662 380.584 489.456 379.703C487.253 378.822 485.856 376.82 485.268 373.698C485.233 373.505 485.199 373.279 485.168 373.023C485.133 372.768 485.088 372.375 485.036 371.847L511.803 366.748C511.945 367.261 512.045 367.646 512.111 367.901C512.173 368.16 512.225 368.393 512.266 368.601C512.847 371.71 512.277 374.075 510.554 375.696V375.696ZM514.082 362.757L481.291 369.001L482.443 375.137C483.165 378.974 484.981 381.512 487.896 382.751C490.811 383.989 495.162 384.059 500.947 382.957C506.671 381.865 510.665 380.207 512.923 377.984C515.181 375.758 515.949 372.728 515.23 368.891L514.082 362.757" fill="white"/>
<path d="M326.882 376.734H326.879C326.558 376.722 326.239 376.717 325.917 376.717C318.052 376.717 310.901 379.816 305.61 384.871C299.936 390.293 296.396 397.964 296.396 406.463H355.438C355.438 398.455 352.297 391.184 347.192 385.836C342.024 380.431 334.854 376.99 326.882 376.734Z" fill="#49263E"/>
<path d="M319.031 405.301L332.659 398.434L368.882 176.763L309.745 390.33L319.031 405.301" fill="#49263E"/>
<path d="M199.232 381.714C198.926 381.791 192.31 384.017 192.31 384.017C192.31 384.017 190.497 387.275 190.573 388.585C190.65 389.9 191.34 392.987 192.719 393.836C194.098 394.687 194.328 395.305 195.554 394.841C196.78 394.377 198.781 393.211 198.781 393.211L207.28 383.947C207.28 383.947 199.539 381.637 199.232 381.714Z" fill="#FFB294"/>
<path d="M258.175 399.681L258.212 402.801L269.319 402.764L275.443 389.569L262.544 388.108L258.175 399.681" fill="#FFB294"/>
<path d="M286.026 403.684H284.09L275.104 398.292L270.191 403.684H258.075C257.774 403.684 257.528 403.93 257.528 404.235V406.084C257.528 406.292 257.695 406.461 257.902 406.461H286.077C286.927 406.461 287.597 405.684 287.429 404.798C287.304 404.138 286.693 403.684 286.026 403.684Z" fill="#FEC786"/>
<path d="M282.46 401.225L272.174 396.627C268.029 400.692 263.331 397.332 263.331 397.332C260.223 395.92 258.184 398.687 258.184 398.687V403.699H286.044C285.28 402.173 282.46 401.225 282.46 401.225" fill="#3AA1C9"/>
<path d="M258.08 398.686V403.674H258.286V398.686H258.08Z" fill="black"/>
<path d="M263.389 397.246L263.271 397.418C264.926 398.564 266.642 398.74 267.541 398.74C267.935 398.74 268.174 398.705 268.182 398.705L268.15 398.5C268.127 398.504 265.697 398.847 263.389 397.246" fill="black"/>
<path d="M259.373 401.87L260.688 402.764L260.801 402.59L259.488 401.697L259.373 401.87Z" fill="black"/>
<path d="M260.315 401.616L261.628 402.51L261.744 402.336L260.429 401.445L260.315 401.616Z" fill="black"/>
<path d="M286.077 403.588H258.22C257.781 403.588 257.424 403.948 257.424 404.389V405.774H257.631V404.389C257.631 404.062 257.895 403.796 258.22 403.796H286.077C286.779 403.796 287.353 404.374 287.353 405.082C287.353 405.461 287.188 405.819 286.902 406.062L287.035 406.221C287.368 405.938 287.557 405.521 287.557 405.082C287.557 404.258 286.892 403.588 286.077 403.588" fill="black"/>
<path d="M283.478 401.528C281.409 400.639 272.307 396.572 272.216 396.53L272.132 396.721C272.223 396.761 281.325 400.83 283.397 401.719C285.423 402.59 285.98 403.726 285.985 403.736L286.169 403.647C286.147 403.6 285.583 402.434 283.478 401.528" fill="black"/>
<path d="M283.317 296.072L255.947 304.038V312.619C255.947 312.619 275.303 329.652 291.397 333.977L260.252 388.668C260.252 388.668 266.741 395.671 277.52 395.671C277.52 395.671 320.111 333.121 320.126 325.806C320.138 320.567 283.317 296.072 283.317 296.072Z" fill="#3D1F35"/>
<path d="M251.053 278.297L190.232 381.874C196.922 387.85 206.807 391.835 206.807 391.835C206.807 391.835 215.32 379.271 229.158 357.821C242.996 336.368 256.072 327.022 267.324 316.602C278.576 306.185 285.57 296.072 285.57 296.072L269.045 277.158L251.053 278.297" fill="#49263E"/>
<path d="M204.197 401.595C201.281 400.042 200.574 400.245 197.804 399.183L198.781 393.21C192.975 391.49 192.425 383.946 192.425 383.946L187.159 384.582C186.217 384.696 185.631 385.671 185.967 386.564L192.686 404.441H204.197C204.197 404.441 205.82 402.459 204.197 401.595" fill="#3AA1C9"/>
<path d="M204.485 404.838C204.35 404.588 204.084 404.439 203.801 404.439H193.856C193.152 404.439 192.521 404.002 192.272 403.337L185.856 386.043C185.753 385.768 185.509 385.552 185.217 385.535C185.056 385.527 184.93 385.569 184.834 385.636C184.601 385.795 184.528 386.108 184.619 386.376L190.975 404.935C191.25 405.724 191.99 406.253 192.82 406.253H203.884C204.433 406.253 204.783 405.809 204.655 405.273C204.616 405.106 204.552 404.96 204.485 404.838" fill="#FEC786"/>
<path d="M204.594 404.778C204.438 404.493 204.133 404.317 203.801 404.317H193.856C193.207 404.317 192.616 403.905 192.386 403.294L185.971 385.998C185.844 385.661 185.551 385.43 185.224 385.412C185.048 385.398 184.896 385.442 184.765 385.534C184.496 385.718 184.389 386.08 184.503 386.418L184.735 386.336C184.658 386.11 184.728 385.857 184.903 385.738C184.989 385.678 185.091 385.651 185.21 385.658C185.44 385.671 185.649 385.839 185.742 386.085L192.157 403.381C192.423 404.089 193.106 404.563 193.856 404.563H203.801C204.044 404.563 204.266 404.692 204.377 404.898C204.451 405.029 204.502 405.166 204.537 405.3C204.589 405.523 204.552 405.729 204.429 405.885C204.308 406.041 204.113 406.128 203.884 406.128V406.374C204.19 406.374 204.453 406.255 204.623 406.037C204.791 405.821 204.845 405.538 204.773 405.242C204.736 405.086 204.675 404.93 204.594 404.778" fill="#1D1D1B"/>
<path d="M193.826 386.444L193.538 385.865L193.074 384.766L192.432 384.017L191.491 385.714L193.084 389.208L193.414 390.024L194.276 389.528L194.305 388.828L194.051 387.486L193.826 386.444" fill="#3AA1C9"/>
<path d="M194.561 390.875C194.561 390.875 195.001 391.917 195.507 392.225L196.175 392.614L197.415 393.036L198.572 393.183L198.624 392.567L194.305 389.339L194.561 390.875Z" fill="#FE9F73"/>
<path d="M197.773 399.302C197.83 399.317 203.449 400.808 204.591 402.071L204.774 401.908C203.582 400.587 198.07 399.126 197.835 399.064L197.773 399.302Z" fill="#1D1D1B"/>
<path d="M194.441 389.673C194.086 385.018 192.56 383.891 192.496 383.844L192.354 384.047C192.37 384.057 193.853 385.176 194.197 389.69C194.431 392.76 196.835 393.078 198.592 393.308L198.641 393.316L197.691 399.113L195.917 400.403L196.061 400.602L197.916 399.254L198.924 393.102L198.621 393.063C196.857 392.832 194.66 392.542 194.441 389.673Z" fill="#1D1D1B"/>
<path d="M296.402 181.511C292.496 178.64 286.93 179.22 286.93 179.22C286.93 179.22 284.369 181.315 284.103 181.57C283.837 181.823 286.278 181.471 286.278 181.471L297.973 191.449L298.778 188.814C299.603 186.119 298.665 183.173 296.402 181.511" fill="#FFB294"/>
<path d="M281.455 193.263L280.507 196.799C280.507 196.799 277.343 203.608 277.215 205.202C277.089 206.792 278.313 210.435 282.253 211.659C283.497 212.046 284.659 212.172 285.667 212.165C287.728 212.147 287.848 216.865 288.213 214.82L290.813 203.082C294.414 203.658 295.465 199.633 295.465 199.633L298.869 188.516L286.051 179.853L281.455 193.263Z" fill="#FFB294"/>
<path d="M288.078 190.503C288.006 190.565 287.994 190.675 288.056 190.746C288.085 190.784 288.125 190.804 288.169 190.809C288.213 190.813 288.26 190.801 288.297 190.771C288.396 190.689 290.708 188.806 292.432 190.573C292.498 190.642 292.607 190.642 292.676 190.575C292.742 190.508 292.745 190.399 292.678 190.332C290.733 188.337 288.105 190.481 288.078 190.503" fill="#4C222E"/>
<path d="M295.996 190.639C295.9 190.637 295.821 190.714 295.818 190.808C295.818 190.86 295.841 190.907 295.875 190.94C295.907 190.967 295.944 190.984 295.988 190.984C296.008 190.987 297.939 191.039 298.077 192.108C298.089 192.203 298.173 192.27 298.269 192.257C298.362 192.245 298.429 192.158 298.416 192.064C298.244 190.699 296.087 190.642 295.996 190.639" fill="#4C222E"/>
<path d="M290.523 191.853C290.249 191.769 289.961 191.923 289.877 192.196C289.794 192.471 289.946 192.762 290.22 192.846C290.491 192.93 290.779 192.777 290.862 192.501C290.946 192.228 290.794 191.938 290.523 191.853Z" fill="black"/>
<path d="M295.911 192.982C295.64 192.897 295.352 193.051 295.268 193.327C295.184 193.6 295.337 193.89 295.608 193.977C295.881 194.061 296.169 193.907 296.253 193.632C296.337 193.359 296.184 193.066 295.911 192.982Z" fill="black"/>
<path d="M280.69 180.897C278.505 184.245 279.714 186.749 279.414 187.858C279.116 188.965 276.116 196.129 281.436 197.179L286.563 185.399L286.258 179.982L286.984 179.046C286.984 179.046 282.872 177.547 280.69 180.897" fill="#33192C"/>
<path d="M284.801 187.168C283.169 186.659 281.437 187.582 280.933 189.227C280.43 190.873 281.346 192.617 282.979 193.126C284.612 193.632 286.343 192.711 286.845 191.064C287.35 189.418 286.434 187.674 284.801 187.168Z" fill="#FFB294"/>
<path d="M282.994 188.349C282.947 188.351 282.908 188.391 282.91 188.438C282.91 188.485 282.95 188.525 282.996 188.523C283.006 188.523 283.799 188.513 284.284 189.016C284.506 189.25 284.632 189.557 284.656 189.935C284.412 189.639 283.9 189.19 283.12 189.399C282.593 189.538 282.245 190.014 282.238 190.615C282.231 191.121 282.499 191.714 283.112 191.905L283.129 191.91C283.176 191.922 283.223 191.898 283.235 191.85C283.25 191.806 283.223 191.759 283.179 191.744L283.161 191.739C282.597 191.563 282.403 191.026 282.41 190.617C282.415 190.222 282.615 189.709 283.164 189.565C284.154 189.304 284.646 190.21 284.666 190.25L284.811 190.525L284.829 190.215C284.858 189.662 284.715 189.217 284.405 188.895C283.868 188.336 283.028 188.349 282.994 188.349" fill="#F07162"/>
<path d="M283.849 197.223C283.849 197.223 281.783 204.327 289.828 207.523L290.813 203.081C290.813 203.081 285.139 202.503 283.849 197.223Z" fill="#F07162"/>
<path d="M294.187 192.049C294.14 192.039 294.096 192.072 294.088 192.119L293.413 196.186L291.601 196.223C291.552 196.223 291.515 196.263 291.515 196.31C291.517 196.35 291.542 196.38 291.576 196.392L291.603 196.395L293.559 196.355L294.258 192.149C294.265 192.101 294.236 192.054 294.187 192.049" fill="#F07162"/>
<path d="M280.101 197.685L282.004 198.454L283.721 192.841L282.388 192.258L280.101 197.685Z" fill="#FFB294"/>
<path d="M299.726 182.282C299.726 182.282 301.568 178.242 297.394 178.311C293.219 178.381 286.243 176.033 283.184 178.961C280.123 181.89 286.509 185.572 286.509 185.572C286.509 185.572 299.292 188.724 300.974 185.999C302.654 183.277 299.726 182.282 299.726 182.282" fill="#33192C"/>
<path d="M286.451 183.105C286.296 183.13 283.371 183.646 283.723 183.694C284.075 183.741 286.51 184.709 286.51 184.709L285.673 187.438C285.673 187.438 286.232 189.371 285.259 191.304C285.259 191.304 285.939 191.828 286.269 191.23C286.599 190.632 287.156 185.939 288.941 185.609C290.724 185.279 286.607 183.078 286.451 183.105" fill="#33192C"/>
<path d="M291.288 198.735C292.407 199.105 293.222 198 293.222 198C293.222 198 290.22 196.993 290.17 196.985C290.17 196.985 290.173 198.363 291.288 198.735Z" fill="#FBFDFC"/>
<path d="M359.081 240.728C359.081 240.728 360.162 239.209 358.706 238.458C358.706 238.458 359.915 236.8 357.362 236.204C357.362 236.204 357.56 235.085 356.411 234.633C355.265 234.182 352.387 234.346 351.922 234.532C351.454 234.72 345.806 238.586 345.806 238.586C345.806 238.586 339.823 244.575 339.43 244.82L344.51 255.282C346.925 253.92 350.996 251.265 352.297 249.937L352.3 249.935C352.422 249.811 352.52 249.694 352.59 249.595L352.603 249.582C352.62 249.553 352.638 249.523 352.65 249.5C352.905 249.034 353.253 248.545 353.659 248.054C354.715 246.339 355.591 244.423 356.043 243.957C356.461 243.525 357.673 243.284 358.458 243.168C359.111 243.068 359.644 242.54 359.685 241.875C359.71 241.488 359.574 241.073 359.081 240.728" fill="#FFB294"/>
<path d="M357.358 236.045C357.214 236.052 353.815 236.194 353.164 236.38C352.505 236.569 351.09 237.492 351.028 237.531C350.953 237.579 350.931 237.678 350.981 237.752C351.006 237.79 351.045 237.814 351.088 237.822C351.127 237.827 351.167 237.819 351.202 237.797C351.217 237.787 352.639 236.861 353.248 236.688C353.743 236.546 356.157 236.415 357.368 236.365C357.455 236.36 357.525 236.286 357.522 236.199C357.52 236.11 357.445 236.042 357.358 236.045" fill="#F07162"/>
<path d="M358.689 238.298C358.564 238.316 355.578 238.696 354.78 238.986C353.982 239.279 352.872 240.036 352.824 240.068C352.755 240.117 352.735 240.217 352.785 240.289C352.809 240.326 352.847 240.351 352.889 240.356C352.929 240.363 352.972 240.356 353.007 240.331C353.017 240.323 354.129 239.564 354.89 239.286C355.651 239.008 358.697 238.621 358.727 238.616C358.814 238.606 358.876 238.524 358.866 238.437C358.856 238.351 358.779 238.289 358.689 238.298" fill="#F07162"/>
<path d="M359.066 240.569C358.956 240.579 356.357 240.84 355.551 241.162C354.747 241.485 354.013 242.031 353.98 242.053C353.913 242.108 353.895 242.207 353.948 242.276C353.973 242.311 354.01 242.331 354.05 242.338C354.092 242.346 354.135 242.336 354.172 242.309C354.18 242.304 354.904 241.765 355.668 241.46C356.432 241.152 359.069 240.889 359.094 240.887C359.181 240.877 359.248 240.8 359.241 240.711C359.231 240.624 359.156 240.559 359.066 240.569" fill="#F07162"/>
<path d="M273.733 206.263L289.748 221.703L289.965 211.765L278.915 200.392L273.733 206.263" fill="#A5EFED"/>
<path d="M284.381 211.21C278.453 202.939 271.854 206.726 271.854 206.726C262.269 212.193 241.573 291.987 241.573 291.987C241.573 291.987 254.098 291.327 258.548 291.659C271.415 292.617 276.225 303.628 291.385 298.888C291.385 298.888 287.489 277.187 289.218 272.554C289.774 271.067 291.473 260.23 292.005 259.074C289.109 254.776 291.513 242.448 294.335 227.685C290.533 220.96 286.703 214.449 284.381 211.21" fill="white"/>
<path d="M288.95 275.751H288.625C288.635 281.757 290.967 297.214 291.206 298.783C285.51 301.152 278.109 299.788 269.209 294.728C261.221 290.184 250.87 291.45 250.767 291.465L250.808 291.79C250.909 291.777 261.157 290.527 269.049 295.013C275.171 298.495 280.599 300.239 285.268 300.239C287.504 300.239 289.568 299.84 291.452 299.036L291.568 298.986L291.548 298.86C291.524 298.691 288.962 282.022 288.95 275.751" fill="#1D1D1B"/>
<path d="M305.546 244.529L289.667 219.594L267.956 232.054C267.956 232.054 285.108 260.123 295.718 265.274C306.327 270.424 345.488 255.321 345.488 255.321L344.567 239.258L305.546 244.529Z" fill="white"/>
<path d="M295.788 265.125C285.341 260.053 268.265 232.248 268.093 231.967L267.814 232.141C267.987 232.421 285.115 260.309 295.645 265.421C297.228 266.19 299.425 266.518 302.018 266.518C316.713 266.518 344.184 256.001 345.543 255.475L345.427 255.167C345.036 255.318 306.21 270.185 295.788 265.125" fill="#1D1D1B"/>
<path d="M305.626 244.35L289.525 219.031L289.25 219.207L305.464 244.705L339.027 240.174L338.983 239.846L305.626 244.35Z" fill="#1D1D1B"/>
<path d="M550.113 156.155C550.113 156.155 551.988 122.118 526.477 119.863C497.213 117.277 496.857 150.717 496.857 150.717C496.857 150.717 483.556 137.994 473.966 154.125C473.966 154.125 457.386 144.47 449.023 162.303C448.743 162.902 448.69 163.528 448.814 164.104H562.034C562.161 162.783 561.772 161.392 560.698 160.239C558.801 158.2 555.561 156.539 550.113 156.155" fill="white"/>
<path d="M127.046 151.208C119.729 138.904 109.584 148.61 109.584 148.61C109.584 148.61 109.313 123.102 86.9925 125.075C67.5304 126.795 68.9617 152.756 68.9617 152.756C64.806 153.049 62.3352 154.317 60.8869 155.873C60.0678 156.752 59.7718 157.814 59.8681 158.821H146.23C146.324 158.382 146.284 157.903 146.07 157.447C139.691 143.845 127.046 151.208 127.046 151.208" fill="white"/>
<path d="M255.85 49.8415C255.85 49.8415 252.503 39.4171 242.33 41.2409C232.16 43.0672 235.759 58.2271 235.759 58.2271C235.759 58.2271 232.476 57.5277 230.201 59.0923C229.445 59.613 229.082 60.3617 229.039 61.1182H281.846C284.006 59.0639 285.348 56.1391 285.276 52.8854C285.217 50.199 284.26 47.0748 281.784 43.5309C272.257 29.8943 255.69 42.917 255.85 49.8415" fill="white"/>
</svg>
